<svg width="24" height="24" viewBox="0 0 24 24" fill="none" xmlns="http://www.w3.org/2000/svg">
<g clip-path="url(#clip0_19_337)">
<path d="M10.8102 7H12.7205V9H10.8102V7ZM11.7654 17C12.2907 17 12.7205 16.55 12.7205 16V12C12.7205 11.45 12.2907 11 11.7654 11C11.24 11 10.8102 11.45 10.8102 12V16C10.8102 16.55 11.24 17 11.7654 17ZM11.7654 2C6.49281 2 2.21362 6.48 2.21362 12C2.21362 17.52 6.49281 22 11.7654 22C17.0379 22 21.3171 17.52 21.3171 12C21.3171 6.48 17.0379 2 11.7654 2ZM11.7654 20C7.55305 20 4.12397 16.41 4.12397 12C4.12397 7.59 7.55305 4 11.7654 4C15.9777 4 19.4068 7.59 19.4068 12C19.4068 16.41 15.9777 20 11.7654 20Z" fill="#1B2559"/>
</g>
<defs>
<clipPath id="clip0_19_337">
<rect width="22.9242" height="24" fill="white" transform="translate(0.303223)"/>
</clipPath>
</defs>
</svg>
