<svg width="24" height="24" viewBox="0 0 24 24" fill="none" xmlns="http://www.w3.org/2000/svg">
<g clip-path="url(#clip0_19_344)">
<path d="M19.4042 17.29L18.172 16V11C18.172 7.93 16.6056 5.36 13.8738 4.68V4C13.8738 3.17 13.2338 2.5 12.441 2.5C11.6482 2.5 11.0082 3.17 11.0082 4V4.68C8.26688 5.36 6.70994 7.92 6.70994 11V16L5.47777 17.29C4.87601 17.92 5.29628 19 6.14639 19H18.726C19.5857 19 20.006 17.92 19.4042 17.29ZM16.2617 17H8.62029V11C8.62029 8.52 10.0626 6.5 12.441 6.5C14.8194 6.5 16.2617 8.52 16.2617 11V17ZM12.441 22C13.4917 22 14.3513 21.1 14.3513 20H10.5306C10.5306 21.1 11.3807 22 12.441 22Z" fill="#1B2559"/>
</g>
<defs>
<clipPath id="clip0_19_344">
<rect width="22.9242" height="24" fill="white" transform="translate(0.979004)"/>
</clipPath>
</defs>
</svg>
