<svg width="17" height="14" viewBox="0 0 17 14" fill="none" xmlns="http://www.w3.org/2000/svg">
<path d="M15.5 0.125H1.75C1.41848 0.125 1.10054 0.256696 0.866116 0.491116C0.631696 0.725537 0.5 1.04348 0.5 1.375V12.625C0.5 12.9565 0.631696 13.2745 0.866116 13.5089C1.10054 13.7433 1.41848 13.875 1.75 13.875H15.5C15.8315 13.875 16.1495 13.7433 16.3839 13.5089C16.6183 13.2745 16.75 12.9565 16.75 12.625V1.375C16.75 1.04348 16.6183 0.725537 16.3839 0.491116C16.1495 0.256696 15.8315 0.125 15.5 0.125ZM15.5 1.375V9.40234L13.4633 7.36641C13.3472 7.2503 13.2094 7.1582 13.0577 7.09537C12.906 7.03253 12.7435 7.00019 12.5793 7.00019C12.4151 7.00019 12.2526 7.03253 12.1009 7.09537C11.9492 7.1582 11.8114 7.2503 11.6953 7.36641L10.1328 8.92891L6.69531 5.49141C6.46092 5.25716 6.1431 5.12558 5.81172 5.12558C5.48034 5.12558 5.16252 5.25716 4.92812 5.49141L1.75 8.66953V1.375H15.5ZM1.75 10.4375L5.8125 6.375L12.0625 12.625H1.75V10.4375ZM15.5 12.625H13.8305L11.018 9.8125L12.5805 8.25L15.5 11.1703V12.625ZM9.875 4.8125C9.875 4.62708 9.92998 4.44582 10.033 4.29165C10.136 4.13748 10.2824 4.01732 10.4537 3.94636C10.625 3.87541 10.8135 3.85684 10.9954 3.89301C11.1773 3.92919 11.3443 4.01848 11.4754 4.14959C11.6065 4.2807 11.6958 4.44775 11.732 4.6296C11.7682 4.81146 11.7496 4.99996 11.6786 5.17127C11.6077 5.34257 11.4875 5.48899 11.3333 5.592C11.1792 5.69502 10.9979 5.75 10.8125 5.75C10.5639 5.75 10.3254 5.65123 10.1496 5.47541C9.97377 5.2996 9.875 5.06114 9.875 4.8125Z" fill="#1C1C1C"/>
</svg>
