<svg width="17" height="18" viewBox="0 0 17 18" fill="none" xmlns="http://www.w3.org/2000/svg">
<path d="M15.7389 7.90366L2.61386 0.412254C2.39262 0.288148 2.13886 0.234292 1.88628 0.257839C1.63371 0.281387 1.39427 0.381223 1.19979 0.544086C1.0053 0.706949 0.864967 0.92513 0.79743 1.16965C0.729893 1.41416 0.738349 1.67344 0.821673 1.91304L3.24355 8.981C3.24324 8.9836 3.24324 8.98622 3.24355 8.98882C3.24311 8.9914 3.24311 8.99404 3.24355 8.99663L0.821673 16.0802C0.754943 16.2687 0.734398 16.4704 0.761763 16.6685C0.789127 16.8665 0.863602 17.0552 0.978936 17.2185C1.09427 17.3818 1.2471 17.5151 1.4246 17.6071C1.60209 17.6991 1.79908 17.7473 1.99902 17.7474C2.21595 17.7469 2.42906 17.6903 2.61777 17.5833L15.7357 10.0794C15.9292 9.97105 16.0904 9.81312 16.2027 9.62187C16.315 9.43061 16.3744 9.21292 16.3748 8.99113C16.3752 8.76934 16.3166 8.55144 16.205 8.35978C16.0934 8.16813 15.9328 8.00962 15.7396 7.90054L15.7389 7.90366ZM1.99902 16.4974V16.4904L4.3537 9.62241H8.87402C9.03978 9.62241 9.19875 9.55656 9.31596 9.43935C9.43317 9.32214 9.49902 9.16317 9.49902 8.99741C9.49902 8.83165 9.43317 8.67268 9.31596 8.55547C9.19875 8.43826 9.03978 8.37241 8.87402 8.37241H4.35995L2.0037 1.50678L1.99902 1.49741L15.124 8.98413L1.99902 16.4974Z" fill="#1C1C1C"/>
</svg>
