<svg width="136" height="98" viewBox="0 0 136 98" fill="none" xmlns="http://www.w3.org/2000/svg">
<path d="M43.0244 42.0967V42.0979C43.0244 47.8728 46.325 52.3118 50.7306 55.8255C55.1188 59.3252 60.8918 62.1434 66.4484 64.6651C67.6167 65.1953 68.7732 65.7116 69.9085 66.2184C74.2782 68.1691 78.3344 69.9798 81.543 71.9053C83.5502 73.1098 85.0874 74.2818 86.1068 75.4491C87.1071 76.5944 87.5254 77.634 87.5254 78.6477C87.5254 79.7149 87.0443 80.7387 85.8264 81.7643C84.5672 82.8247 82.6184 83.7888 80.003 84.5887C74.7863 86.1841 67.4837 86.9586 59.4177 86.9586C47.7517 86.9586 34.8634 85.328 24.9594 82.1424C19.9979 80.5465 15.9145 78.6008 13.1111 76.3735C10.3163 74.1529 8.99984 71.8333 8.99984 69.4284C8.99984 67.9866 9.48125 67.0231 10.0509 66.1582C10.1905 65.9462 10.3306 65.7473 10.4827 65.5313L10.5229 65.4743C10.6814 65.2491 10.8639 64.9889 11.0275 64.7262C11.3335 64.2349 11.7613 63.4529 11.7613 62.4816C11.7613 61.6596 11.4401 60.8997 10.9495 60.3383C10.4556 59.773 9.66778 59.2808 8.67857 59.2808C7.50086 59.2808 6.52535 59.9588 5.88815 60.5427C5.18144 61.1903 4.52656 62.0552 3.96984 63.0373C2.85424 65.0054 2 67.6796 2 70.6292C2 79.7305 10.1165 86.033 20.3298 89.9783C30.7447 94.0014 44.3195 96 57.2621 96C66.8476 96 76.4313 94.9134 83.6937 92.3331C90.8207 89.8008 96.5715 85.4717 96.5715 78.5385C96.5715 73.2019 93.128 69.1392 88.7455 65.9233C84.3449 62.694 78.5442 59.9848 72.9692 57.4527C72.5207 57.249 72.0738 57.0465 71.6289 56.8449C66.4431 54.4952 61.5427 52.2747 57.8183 49.8339C53.6879 47.1271 51.7129 44.6014 51.7129 41.9888C51.7129 39.6452 53.2674 36.4603 56.6261 32.8266C59.9164 29.2669 64.6752 25.5644 70.4363 22.2066C81.969 15.4848 97.2173 10.3169 112.084 10.3169C117.957 10.3169 121.583 11.1173 123.666 12.1579C125.654 13.1507 126.037 14.2262 126.037 15.0255C126.037 16.0903 125.329 17.9181 123.569 20.2617C121.871 22.5216 119.398 24.9896 116.377 27.2875C110.482 31.772 102.769 35.4103 95.0905 35.7683C94.3768 35.2882 93.5745 34.9474 92.7736 34.9474C91.5189 34.9474 90.848 35.8395 90.5962 36.2953C90.3333 36.7712 90.2121 37.2858 90.1473 37.6418C90.0107 38.3912 90 39.1786 90 39.5C90 41.4913 91.4504 42.6811 92.8286 43.2713C94.2142 43.8648 96.0027 44.1078 97.9289 44.1078C102.172 44.1078 111.033 43.0513 118.911 38.9195C126.888 34.7359 134 27.288 134 14.6682C134 12.3119 133.491 8.91438 130.034 6.22581C126.732 3.65764 121.055 2 111.488 2C94.0579 2 77.0909 7.47957 64.451 15.095C58.129 18.9039 52.8239 23.2864 49.0759 27.8557C45.3477 32.4008 43.0272 37.2989 43.0244 42.0967Z" fill="white" stroke="white" stroke-width="4"/>
</svg>
