<svg width="826" height="46" viewBox="0 0 826 46" fill="none" xmlns="http://www.w3.org/2000/svg">
<rect y="0.15271" width="826" height="45.6655" rx="22.8327" fill="#D9D9D9"/>
<g clip-path="url(#clip0_115_596)">
<path d="M794.364 21.8891L781.239 14.3977C781.018 14.2736 780.764 14.2198 780.511 14.2433C780.259 14.2669 780.019 14.3667 779.825 14.5296C779.63 14.6924 779.49 14.9106 779.422 15.1551C779.355 15.3996 779.363 15.6589 779.447 15.8985L781.869 22.9665C781.868 22.9691 781.868 22.9717 781.869 22.9743C781.868 22.9769 781.868 22.9795 781.869 22.9821L779.447 30.0657C779.38 30.2542 779.359 30.4559 779.387 30.654C779.414 30.852 779.489 31.0406 779.604 31.2039C779.719 31.3673 779.872 31.5005 780.05 31.5926C780.227 31.6846 780.424 31.7327 780.624 31.7329C780.841 31.7323 781.054 31.6758 781.243 31.5688L794.361 24.0649C794.554 23.9565 794.715 23.7986 794.828 23.6073C794.94 23.4161 794.999 23.1984 795 22.9766C795 22.7548 794.942 22.5369 794.83 22.3453C794.718 22.1536 794.558 21.9951 794.365 21.886L794.364 21.8891ZM780.624 30.4829V30.4759L782.979 23.6079H787.499C787.665 23.6079 787.824 23.542 787.941 23.4248C788.058 23.3076 788.124 23.1486 788.124 22.9829C788.124 22.8171 788.058 22.6582 787.941 22.5409C787.824 22.4237 787.665 22.3579 787.499 22.3579H782.985L780.629 15.4923L780.624 15.4829L793.749 22.9696L780.624 30.4829Z" fill="#1C1C1C"/>
</g>
<defs>
<clipPath id="clip0_115_596">
<rect width="15.6248" height="17.495" fill="white" transform="translate(779.375 14.2379)"/>
</clipPath>
</defs>
</svg>
