<svg width="24" height="25" viewBox="0 0 24 25" fill="none" xmlns="http://www.w3.org/2000/svg">
<g clip-path="url(#clip0_115_586)">
<path d="M10.8095 7.38733H12.7198V9.38733H10.8095V7.38733ZM11.7646 17.3873C12.29 17.3873 12.7198 16.9373 12.7198 16.3873V12.3873C12.7198 11.8373 12.29 11.3873 11.7646 11.3873C11.2393 11.3873 10.8095 11.8373 10.8095 12.3873V16.3873C10.8095 16.9373 11.2393 17.3873 11.7646 17.3873ZM11.7646 2.38733C6.49207 2.38733 2.21289 6.86733 2.21289 12.3873C2.21289 17.9073 6.49207 22.3873 11.7646 22.3873C17.0372 22.3873 21.3164 17.9073 21.3164 12.3873C21.3164 6.86733 17.0372 2.38733 11.7646 2.38733ZM11.7646 20.3873C7.55232 20.3873 4.12324 16.7973 4.12324 12.3873C4.12324 7.97733 7.55232 4.38733 11.7646 4.38733C15.977 4.38733 19.406 7.97733 19.406 12.3873C19.406 16.7973 15.977 20.3873 11.7646 20.3873Z" fill="#718096"/>
</g>
<defs>
<clipPath id="clip0_115_586">
<rect width="22.9242" height="24" fill="white" transform="translate(0.302734 0.387329)"/>
</clipPath>
</defs>
</svg>
