<svg width="24" height="25" viewBox="0 0 24 25" fill="none" xmlns="http://www.w3.org/2000/svg">
<g clip-path="url(#clip0_115_593)">
<path d="M19.404 17.6773L18.1718 16.3873V11.3873C18.1718 8.31733 16.6053 5.74733 13.8735 5.06733V4.38733C13.8735 3.55733 13.2335 2.88733 12.4407 2.88733C11.648 2.88733 11.008 3.55733 11.008 4.38733V5.06733C8.26663 5.74733 6.7097 8.30733 6.7097 11.3873V16.3873L5.47752 17.6773C4.87576 18.3073 5.29604 19.3873 6.14615 19.3873H18.7258C19.5855 19.3873 20.0057 18.3073 19.404 17.6773ZM16.2614 17.3873H8.62005V11.3873C8.62005 8.90733 10.0624 6.88733 12.4407 6.88733C14.8191 6.88733 16.2614 8.90733 16.2614 11.3873V17.3873ZM12.4407 22.3873C13.4914 22.3873 14.3511 21.4873 14.3511 20.3873H10.5304C10.5304 21.4873 11.3805 22.3873 12.4407 22.3873Z" fill="#718096"/>
</g>
<defs>
<clipPath id="clip0_115_593">
<rect width="22.9242" height="24" fill="white" transform="translate(0.978516 0.387329)"/>
</clipPath>
</defs>
</svg>
