<svg width="102" height="92" viewBox="0 0 102 92" fill="none" xmlns="http://www.w3.org/2000/svg">
<path d="M32.3068 39.9846V39.9856C32.3068 45.1904 34.6542 49.2868 37.9359 52.609C41.1752 55.8881 45.4293 58.5207 49.4749 60.851C50.3359 61.347 51.1842 61.8277 52.0139 62.2979C55.183 64.0938 58.0803 65.7357 60.3756 67.4841C63.2956 69.7082 64.6395 71.6681 64.6395 73.6926C64.6395 75.7505 63.1466 77.6251 59.4222 79.0708C55.7616 80.4918 50.572 81.2016 44.7644 81.2016C36.3737 81.2016 27.1207 79.7108 20.0394 76.8197C12.7768 73.8546 8.67957 69.8251 8.67957 65.1903C8.67957 63.7874 9.05132 62.8649 9.45801 62.0811C9.55903 61.8864 9.66035 61.7039 9.77095 61.5046L9.80008 61.452C9.91539 61.2442 10.0487 61.003 10.168 60.7598C10.3992 60.2885 10.6859 59.6041 10.6859 58.7839C10.6859 58.1095 10.4801 57.4354 10.1024 56.8868C9.74431 56.3666 9.01016 55.6765 7.89927 55.6765C7.22521 55.6765 6.67786 55.937 6.30957 56.1775C5.92915 56.4259 5.60563 56.7393 5.33704 57.0517C4.79893 57.6776 4.31761 58.4912 3.91607 59.3904C3.10793 61.2 2.5 63.6325 2.5 66.2977C2.5 74.5385 8.34954 80.4622 16.0077 84.2171C23.703 87.9902 33.6963 89.8508 43.1983 89.8508C50.2285 89.8508 57.3222 88.8412 62.7381 86.3987C68.1835 83.9429 72.3058 79.8223 72.3058 73.5919C72.3058 68.7966 69.8572 65.0372 66.5764 61.9814C63.3282 58.956 59.0556 56.4259 55.0084 54.0928C54.6854 53.9066 54.3639 53.7217 54.0444 53.5379C50.2641 51.3634 46.7505 49.3424 44.0848 47.125C41.1998 44.7251 39.7133 42.4237 39.7133 39.8849C39.7133 37.624 40.8809 34.6632 43.2858 31.3608C45.6567 28.105 49.083 24.722 53.2278 21.6557C61.5439 15.5034 72.4652 10.832 83.0296 10.832C87.2118 10.832 89.6719 11.5564 91.0234 12.4133C92.2634 13.1995 92.6204 14.1146 92.6204 15.0188C92.6204 16.0874 92.076 17.8061 90.8149 19.9369C89.5886 22.009 87.8072 24.2634 85.6396 26.3563C81.4607 30.3912 76.1385 33.5553 70.9415 33.9726C70.8108 33.8732 70.6776 33.7824 70.5422 33.701C70.176 33.481 69.6365 33.2357 68.9995 33.2357C67.5444 33.2357 66.9659 34.4747 66.8556 34.7281C66.6701 35.1544 66.5863 35.6089 66.5413 35.9225C66.4454 36.5903 66.4375 37.297 66.4375 37.5897C66.4375 39.2561 67.4163 40.4552 68.6564 41.1294C69.8141 41.7587 71.2653 41.9947 72.7452 41.9947C75.9624 41.9947 82.5624 40.9873 88.4231 37.0858C94.4076 33.1019 99.5 26.1663 99.5 14.6893C99.5 12.6171 99.1703 9.48847 96.5847 6.93615C94.0302 4.41456 89.6755 2.85083 82.5966 2.85083C69.7084 2.85083 57.2209 7.98914 47.9564 15.074C38.786 22.087 32.3108 31.3876 32.3068 39.9846Z" fill="white" stroke="white" stroke-width="4"/>
</svg>
