<svg width="124" height="91" viewBox="0 0 124 91" fill="none" xmlns="http://www.w3.org/2000/svg">
<path d="M39.1783 39.1336V39.1347C39.1783 44.5126 42.2015 48.6446 46.2194 51.9055C50.2164 55.1495 55.4686 57.7573 60.5043 60.0828C61.5668 60.5735 62.6173 61.0508 63.6478 61.5189C67.6062 63.3171 71.2672 64.9803 74.1636 66.7491C75.9743 67.8549 77.3495 68.9241 78.2568 69.9812C79.1447 71.0158 79.5074 71.9437 79.5074 72.8418C79.5074 73.783 79.0937 74.6891 78.0213 75.6081C76.9069 76.5631 75.1689 77.4418 72.8135 78.1748C68.1152 79.637 61.5219 80.3508 54.2223 80.3508C43.6668 80.3508 32.0106 78.8489 23.0617 75.9197C18.5782 74.4522 14.9027 72.6674 12.3869 70.6333C9.88237 68.6083 8.71861 66.5076 8.71861 64.3395C8.71861 63.042 9.1424 62.1785 9.64892 61.3958C9.77408 61.2024 9.89972 61.0209 10.0379 60.8214L10.0741 60.769C10.2175 60.5617 10.3853 60.3184 10.5361 60.072C10.8179 59.6115 11.2212 58.8643 11.2212 57.9331C11.2212 57.1449 10.9189 56.4126 10.4505 55.8671C9.97984 55.319 9.21484 54.8257 8.23995 54.8257C7.08882 54.8257 6.15638 55.4968 5.57167 56.042C4.91503 56.6544 4.31206 57.4666 3.80224 58.3818C2.78015 60.2168 2 62.7046 2 65.4469C2 73.928 9.43738 79.7828 18.7203 83.4319C28.1899 87.1544 40.5205 89 52.2688 89C60.9681 89 69.6815 87.997 76.2956 85.6055C82.7896 83.2575 88.0804 79.2212 88.0804 72.7411C88.0804 67.7604 84.9193 63.9742 80.925 60.9915C76.9183 57.9996 71.6425 55.493 66.5929 53.1592C66.1875 52.9718 65.7837 52.7856 65.3819 52.6003C60.6777 50.4311 56.2509 48.3898 52.889 46.1478C49.1626 43.6627 47.4273 41.3743 47.4273 39.0341C47.4273 36.9202 48.8092 34.0161 51.8418 30.6773C54.8096 27.41 59.1069 24.0064 64.3154 20.9172C74.7441 14.7318 88.526 9.98114 101.951 9.98114C107.259 9.98114 110.505 10.718 112.351 11.6562C114.097 12.5437 114.408 13.485 114.408 14.1679C114.408 15.1088 113.788 16.7651 112.199 18.9169C110.671 20.9873 108.441 23.2522 105.715 25.3627C100.408 29.4705 93.4879 32.7918 86.6114 33.1386C85.958 32.702 85.2122 32.3848 84.451 32.3848C83.1954 32.3848 82.5402 33.2909 82.3066 33.7212C82.0576 34.1798 81.9449 34.6711 81.8854 35.0033C81.7596 35.7058 81.75 36.4411 81.75 36.7389C81.75 38.6454 83.12 39.7902 84.4154 40.3548C85.7084 40.9184 87.3626 41.1439 89.1231 41.1439C92.9935 41.1439 101.06 40.1651 108.238 36.3346C115.518 32.4489 122 25.5315 122 13.8385C122 11.6517 121.537 8.46498 118.347 5.94037C115.303 3.53114 110.1 2 101.411 2C85.5704 2 70.1564 7.06675 58.6737 14.1068C52.9299 17.6284 48.1055 21.6829 44.6943 25.9149C41.3016 30.1238 39.1809 34.6705 39.1783 39.1336Z" fill="white" stroke="white" stroke-width="4"/>
</svg>
